<?xml version="1.0" encoding="utf-8"?>
<!-- Generator: Adobe Illustrator 12.0.0, SVG Export Plug-In . SVG Version: 6.00 Build 51448)  -->
<!DOCTYPE svg PUBLIC "-//W3C//DTD SVG 1.1//EN" "http://www.w3.org/Graphics/SVG/1.1/DTD/svg11.dtd" [
	<!ENTITY ns_svg "http://www.w3.org/2000/svg">
	<!ENTITY ns_xlink "http://www.w3.org/1999/xlink">
]>
<svg  version="1.1" id="Layer_1" xmlns="&ns_svg;" xmlns:xlink="&ns_xlink;" width="327.667" height="101.5"
	 viewBox="0 0 327.667 101.5" overflow="visible" enable-background="new 0 0 327.667 101.5" xml:space="preserve">
<polygon fill="#FFFFFF" points="41.881,82.695 41.881,88.273 44.858,88.273 44.858,89.643 40.313,89.643 40.313,82.695 "/>
<path fill="#FFFFFF" d="M58.13,88.292h-3.215l-0.546,1.351h-1.617l3.016-6.947h1.618l2.967,6.947h-1.677L58.13,88.292z
	 M57.624,87.032l-1.092-2.699l-1.101,2.699H57.624z"/>
<polygon fill="#FFFFFF" points="70.222,82.695 73.596,87.161 73.596,82.695 75.084,82.695 75.084,89.643 73.656,89.643 
	70.291,85.187 70.291,89.643 68.792,89.643 68.792,82.695 "/>
<g>
	<defs>
		<rect id="XMLID_1_" width="327.667" height="101.5"/>
	</defs>
	<clipPath id="XMLID_3_">
		<use xlink:href="#XMLID_1_" />
	</clipPath>
	<path clip-path="url(#XMLID_3_)" fill="#FFFFFF" d="M88.991,86.139h1.36v2.671c-0.735,0.534-1.856,0.902-2.819,0.902
		c-2.103,0-3.701-1.529-3.701-3.543c0-2.005,1.627-3.522,3.791-3.522c1.032,0,2.084,0.396,2.788,1.012l-0.883,1.121
		c-0.516-0.477-1.23-0.774-1.905-0.774c-1.231,0-2.183,0.943-2.183,2.164c0,1.23,0.962,2.173,2.192,2.173
		c0.417,0,0.914-0.148,1.36-0.377V86.139z"/>
	<path clip-path="url(#XMLID_3_)" fill="#FFFFFF" d="M102.462,88.343c0.933,0,1.548-0.606,1.548-1.608v-4.039h1.568v4.039
		c0,1.836-1.201,2.977-3.116,2.977c-1.925,0-3.156-1.141-3.156-2.977v-4.039h1.568v4.039
		C100.874,87.736,101.529,88.343,102.462,88.343"/>
	<path clip-path="url(#XMLID_3_)" fill="#FFFFFF" d="M119.079,88.292h-3.216l-0.546,1.351H113.7l3.017-6.947h1.617l2.968,6.947
		h-1.678L119.079,88.292z M118.573,87.032l-1.092-2.699l-1.101,2.699H118.573z"/>
	<path clip-path="url(#XMLID_3_)" fill="#FFFFFF" d="M134.216,86.139h1.36v2.671c-0.735,0.534-1.856,0.902-2.819,0.902
		c-2.103,0-3.701-1.529-3.701-3.543c0-2.005,1.627-3.522,3.791-3.522c1.032,0,2.084,0.396,2.788,1.012l-0.882,1.121
		c-0.517-0.477-1.231-0.774-1.906-0.774c-1.231,0-2.183,0.943-2.183,2.164c0,1.23,0.962,2.173,2.193,2.173
		c0.416,0,0.912-0.148,1.359-0.377V86.139z"/>
	<polygon clip-path="url(#XMLID_3_)" fill="#FFFFFF" points="149.951,82.695 149.951,83.995 146.229,83.995 146.229,85.504 
		149.583,85.504 149.583,86.805 146.229,86.805 146.229,88.342 150.06,88.342 150.06,89.643 144.662,89.643 144.662,82.695 	"/>
	<path clip-path="url(#XMLID_3_)" fill="#FFFFFF" d="M171.521,83.966c-0.526,0-0.884,0.188-0.884,0.565
		c0,1.28,3.702,0.566,3.692,3.066c0,1.359-1.182,2.095-2.719,2.095c-1.142,0-2.283-0.437-3.067-1.102l0.625-1.28
		c0.716,0.635,1.728,1.042,2.461,1.042c0.646,0,1.032-0.238,1.032-0.665c0-1.311-3.701-0.546-3.701-3.007
		c0-1.261,1.082-2.055,2.689-2.055c0.973,0,1.945,0.298,2.639,0.755l-0.604,1.3C172.95,84.243,172.077,83.966,171.521,83.966"/>
	<path clip-path="url(#XMLID_3_)" fill="#FFFFFF" d="M190.113,86.169c0,2.005-1.607,3.543-3.732,3.543
		c-2.123,0-3.73-1.528-3.73-3.543c0-2.024,1.607-3.523,3.73-3.523C188.506,82.646,190.113,84.154,190.113,86.169 M184.258,86.169
		c0,1.221,0.982,2.174,2.144,2.174c1.162,0,2.104-0.953,2.104-2.174s-0.942-2.153-2.104-2.153
		C185.23,84.016,184.258,84.948,184.258,86.169"/>
	<polygon clip-path="url(#XMLID_3_)" fill="#FFFFFF" points="200.429,82.695 200.429,88.273 203.404,88.273 203.404,89.643 
		198.86,89.643 198.86,82.695 	"/>
	<path clip-path="url(#XMLID_3_)" fill="#FFFFFF" d="M215.08,88.343c0.933,0,1.548-0.606,1.548-1.608v-4.039h1.566v4.039
		c0,1.836-1.199,2.977-3.114,2.977c-1.926,0-3.156-1.141-3.156-2.977v-4.039h1.568v4.039
		C213.492,87.736,214.146,88.343,215.08,88.343"/>
	<polygon clip-path="url(#XMLID_3_)" fill="#FFFFFF" points="232.431,82.695 232.431,84.025 230.308,84.025 230.308,89.643 
		228.739,89.643 228.739,84.025 226.625,84.025 226.625,82.695 	"/>
	<rect x="240.989" y="82.695" clip-path="url(#XMLID_3_)" fill="#FFFFFF" width="1.567" height="6.946"/>
	<path clip-path="url(#XMLID_3_)" fill="#FFFFFF" d="M258.775,86.169c0,2.005-1.607,3.543-3.732,3.543
		c-2.123,0-3.73-1.528-3.73-3.543c0-2.024,1.607-3.523,3.73-3.523C257.168,82.646,258.775,84.154,258.775,86.169 M252.92,86.169
		c0,1.221,0.982,2.174,2.144,2.174s2.104-0.953,2.104-2.174s-0.943-2.153-2.104-2.153C253.893,84.016,252.92,84.948,252.92,86.169"
		/>
	<polygon clip-path="url(#XMLID_3_)" fill="#FFFFFF" points="268.951,82.695 272.325,87.161 272.325,82.695 273.813,82.695 
		273.813,89.643 272.384,89.643 269.021,85.187 269.021,89.643 267.522,89.643 267.522,82.695 	"/>
	<path clip-path="url(#XMLID_3_)" fill="#FFFFFF" d="M285.469,83.966c-0.526,0-0.885,0.188-0.885,0.565
		c0,1.28,3.703,0.566,3.693,3.066c0,1.359-1.182,2.095-2.719,2.095c-1.143,0-2.283-0.437-3.067-1.102l0.625-1.28
		c0.715,0.635,1.728,1.042,2.461,1.042c0.646,0,1.032-0.238,1.032-0.665c0-1.311-3.701-0.546-3.701-3.007
		c0-1.261,1.082-2.055,2.689-2.055c0.973,0,1.944,0.298,2.639,0.755l-0.604,1.3C286.897,84.243,286.023,83.966,285.469,83.966"/>
	<polygon clip-path="url(#XMLID_3_)" fill="#00ADEF" points="11.068,30.211 35.218,45.08 11.068,59.947 14.582,45.08 	"/>
	<path clip-path="url(#XMLID_3_)" fill="#FFFFFF" d="M143.92,71.145V42.539c0-10.445-3.952-13.268-9.786-13.268
		c-6.963,0-10.539,3.763-10.539,16.185v25.688H111.08V42.539c0-10.257-3.576-13.268-10.163-13.268
		c-7.245,0-10.162,3.857-10.162,16.185v25.688H78.24v-52.13h11.48v4.894c3.67-4.424,7.433-6.117,13.55-6.117
		c7.151,0,11.762,2.447,15.338,8.092c4.234-5.645,9.409-8.092,16.749-8.092c13.738,0,21.078,7.621,21.078,23.242v30.111H143.92z"/>
	<path clip-path="url(#XMLID_3_)" fill="#FFFFFF" d="M219.611,50.631h-40.368c1.506,6.305,6.963,10.257,14.396,10.257
		c5.177,0,8.281-1.412,11.48-5.176h13.644c-3.481,10.727-14.302,16.656-24.842,16.656c-15.902,0-28.228-11.857-28.228-27.102
		c0-15.337,12.138-27.476,27.476-27.476c15.526,0,26.912,11.857,26.912,28.041C220.082,47.715,219.987,48.843,219.611,50.631
		 M193.358,29.271c-7.435,0-12.516,3.67-14.491,10.351h28.888C206.155,32.941,201.074,29.271,193.358,29.271"/>
	<path clip-path="url(#XMLID_3_)" fill="#FFFFFF" d="M242.014,42.162v28.981h-12.516V19.014h11.48v5.081
		c3.294-4.798,5.928-6.304,11.292-6.304h0.94v12.044C245.684,30.023,242.014,34.07,242.014,42.162"/>
	<path clip-path="url(#XMLID_3_)" fill="#FFFFFF" d="M289.764,72.368c-15.244,0-27.664-12.233-27.664-27.289
		c0-14.962,12.42-27.288,27.57-27.288c15.714,0,27.853,12.139,27.853,27.665C317.522,60.135,304.914,72.368,289.764,72.368
		 M289.764,29.271c-8.187,0-15.056,7.057-15.056,15.619c0,8.94,6.681,15.997,15.149,15.997c8.281,0,15.057-7.057,15.057-15.809
		C304.914,36.422,298.139,29.271,289.764,29.271"/>
	<path clip-path="url(#XMLID_3_)" fill="#FFFFFF" d="M40.976,17.797c-9.485,0-17.884,4.844-22.85,12.131l10.441,6.428
		c2.718-4.236,7.33-7.082,12.503-7.082c8.373,0,15.147,7.15,15.147,15.806c0,8.75-6.774,15.805-15.053,15.805
		c-5.314,0-9.888-2.808-12.583-7.089L18.11,60.241c4.971,7.3,13.402,12.12,22.96,12.12c15.147,0,27.753-12.229,27.753-26.905
		C68.823,29.934,56.688,17.797,40.976,17.797"/>
</g>
</svg>
